<svg xmlns="http://www.w3.org/2000/svg" xmlns:xlink="http://www.w3.org/1999/xlink" width="236" height="568" viewBox="0 0 236 568">
  <defs>
    <clipPath id="clip-path">
      <rect id="Rectangle_30" data-name="Rectangle 30" width="34" height="347" fill="none"/>
    </clipPath>
  </defs>
  <g id="player1-bike2" transform="translate(-772 -1909)">
    <g id="Groupe_14" data-name="Groupe 14" transform="translate(772 1909)">
      <g id="Groupe_13" data-name="Groupe 13">
        <g id="Groupe_10" data-name="Groupe 10">
          <g id="Groupe_8" data-name="Groupe 8">
            <g id="Rectangle_33" data-name="Rectangle 33" transform="translate(73 148)" fill="#707070" stroke="#000" stroke-width="6">
              <rect width="89" height="361" stroke="none"/>
              <rect x="3" y="3" width="83" height="355" fill="none"/>
            </g>
            <g id="Union_9" data-name="Union 9" transform="translate(0 450)">
              <path id="Tracé_20" data-name="Tracé 20" d="M-1193.5,1.5h-47v84h-93v31h233v-31h-93V1.5Z" transform="translate(1335 0)"/>
              <path id="Tracé_21" data-name="Tracé 21" d="M-1195,3V87h93v28h-230V87h93V3h44m3-3h-50V84h-93v34h236V84h-93Z" transform="translate(1335 0)" fill="#707070"/>
            </g>
            <g id="Rectangle_37" data-name="Rectangle 37" transform="translate(93 0)" stroke="#707070" stroke-width="3">
              <rect width="50" height="387" rx="25" stroke="none"/>
              <rect x="1.5" y="1.5" width="47" height="384" rx="23.5" fill="none"/>
            </g>
          </g>
        </g>
        <g id="Groupe_11" data-name="Groupe 11" transform="translate(2 328)">
          <g id="Rectangle_47" data-name="Rectangle 47" transform="translate(55)" fill="#707070" stroke="#000" stroke-width="2">
            <rect width="17" height="118" stroke="none"/>
            <rect x="1" y="1" width="15" height="116" fill="none"/>
          </g>
          <g id="Rectangle_48" data-name="Rectangle 48" transform="translate(0 89)" fill="#707070" stroke="#000" stroke-width="2">
            <rect width="42" height="16" stroke="none"/>
            <rect x="1" y="1" width="40" height="14" fill="none"/>
          </g>
          <g id="Tracé_1" data-name="Tracé 1" transform="translate(40 93)">
            <path id="Tracé_22" data-name="Tracé 22" d="M15,1H1V7H15Z" fill="#707070"/>
            <path id="Tracé_23" data-name="Tracé 23" d="M14,2V6H2V2H14m2-2H0V8H16Z" fill="#707070"/>
          </g>
        </g>
        <g id="Groupe_12" data-name="Groupe 12" transform="translate(161 210)">
          <g id="Rectangle_47-2" data-name="Rectangle 47" fill="#707070" stroke="#000" stroke-width="2">
            <rect width="17" height="118" stroke="none"/>
            <rect x="1" y="1" width="15" height="116" fill="none"/>
          </g>
          <g id="Rectangle_48-2" data-name="Rectangle 48" transform="translate(30 13)" fill="#707070" stroke="#000" stroke-width="2">
            <rect width="42" height="16" stroke="none"/>
            <rect x="1" y="1" width="40" height="14" fill="none"/>
          </g>
          <g id="Tracé_1-2" data-name="Tracé 1" transform="translate(16 17)">
            <path id="Tracé_24" data-name="Tracé 24" d="M15,1H1V7H15Z" fill="#707070"/>
            <path id="Tracé_25" data-name="Tracé 25" d="M2,6V2H14V6H2M0,8H16V0H0Z" fill="#707070"/>
          </g>
        </g>
      </g>
    </g>
    <g id="Grille_de_répétition_2" data-name="Grille de répétition 2" transform="translate(873 1924)" clip-path="url(#clip-path)">
      <g id="Groupe_26" data-name="Groupe 26" transform="translate(0 338)">
        <g id="Rectangle_54" data-name="Rectangle 54" fill="#707070" stroke="#707070" stroke-width="1">
          <rect width="34" height="9" stroke="none"/>
          <rect x="0.5" y="0.5" width="33" height="8" fill="none"/>
        </g>
      </g>
      <g id="Groupe_27" data-name="Groupe 27" transform="translate(0 309)">
        <g id="Rectangle_54-2" data-name="Rectangle 54" fill="#707070" stroke="#707070" stroke-width="1">
          <rect width="34" height="9" stroke="none"/>
          <rect x="0.5" y="0.5" width="33" height="8" fill="none"/>
        </g>
      </g>
      <g id="Groupe_28" data-name="Groupe 28" transform="translate(0 280)">
        <g id="Rectangle_54-3" data-name="Rectangle 54" fill="#707070" stroke="#707070" stroke-width="1">
          <rect width="34" height="9" stroke="none"/>
          <rect x="0.5" y="0.5" width="33" height="8" fill="none"/>
        </g>
      </g>
      <g id="Groupe_29" data-name="Groupe 29" transform="translate(0 251)">
        <g id="Rectangle_54-4" data-name="Rectangle 54" fill="#707070" stroke="#707070" stroke-width="1">
          <rect width="34" height="9" stroke="none"/>
          <rect x="0.5" y="0.5" width="33" height="8" fill="none"/>
        </g>
      </g>
      <g id="Groupe_30" data-name="Groupe 30" transform="translate(0 222)">
        <g id="Rectangle_54-5" data-name="Rectangle 54" fill="#707070" stroke="#707070" stroke-width="1">
          <rect width="34" height="9" stroke="none"/>
          <rect x="0.5" y="0.5" width="33" height="8" fill="none"/>
        </g>
      </g>
      <g id="Groupe_31" data-name="Groupe 31" transform="translate(0 193)">
        <g id="Rectangle_54-6" data-name="Rectangle 54" fill="#707070" stroke="#707070" stroke-width="1">
          <rect width="34" height="9" stroke="none"/>
          <rect x="0.5" y="0.5" width="33" height="8" fill="none"/>
        </g>
      </g>
      <g id="Groupe_32" data-name="Groupe 32" transform="translate(0 164)">
        <g id="Rectangle_54-7" data-name="Rectangle 54" fill="#707070" stroke="#707070" stroke-width="1">
          <rect width="34" height="9" stroke="none"/>
          <rect x="0.5" y="0.5" width="33" height="8" fill="none"/>
        </g>
      </g>
      <g id="Groupe_33" data-name="Groupe 33" transform="translate(0 135)">
        <g id="Rectangle_54-8" data-name="Rectangle 54" fill="#707070" stroke="#707070" stroke-width="1">
          <rect width="34" height="9" stroke="none"/>
          <rect x="0.5" y="0.5" width="33" height="8" fill="none"/>
        </g>
      </g>
      <g id="Groupe_34" data-name="Groupe 34" transform="translate(0 106)">
        <g id="Rectangle_54-9" data-name="Rectangle 54" fill="#707070" stroke="#707070" stroke-width="1">
          <rect width="34" height="9" stroke="none"/>
          <rect x="0.5" y="0.5" width="33" height="8" fill="none"/>
        </g>
      </g>
      <g id="Groupe_35" data-name="Groupe 35" transform="translate(0 77)">
        <g id="Rectangle_54-10" data-name="Rectangle 54" fill="#707070" stroke="#707070" stroke-width="1">
          <rect width="34" height="9" stroke="none"/>
          <rect x="0.5" y="0.5" width="33" height="8" fill="none"/>
        </g>
      </g>
      <g id="Groupe_36" data-name="Groupe 36" transform="translate(0 48)">
        <g id="Rectangle_54-11" data-name="Rectangle 54" fill="#707070" stroke="#707070" stroke-width="1">
          <rect width="34" height="9" stroke="none"/>
          <rect x="0.5" y="0.5" width="33" height="8" fill="none"/>
        </g>
      </g>
      <g id="Groupe_37" data-name="Groupe 37" transform="translate(0 19)">
        <g id="Rectangle_54-12" data-name="Rectangle 54" fill="#707070" stroke="#707070" stroke-width="1">
          <rect width="34" height="9" stroke="none"/>
          <rect x="0.5" y="0.5" width="33" height="8" fill="none"/>
        </g>
      </g>
    </g>
  </g>
</svg>
