<svg xmlns="http://www.w3.org/2000/svg" xmlns:xlink="http://www.w3.org/1999/xlink" width="375" height="667" viewBox="0 0 375 667"><defs><style>.a{clip-path:url(#b);}.b,.d,.g{fill:#707070;}.b{stroke:#000;stroke-width:6px;}.c{stroke:#707070;stroke-width:3px;}.d{stroke-linejoin:bevel;}.e,.g,.h{stroke:none;}.f{fill:none;}.i{fill:#e3d0b8;}</style><clipPath id="b"><rect width="375" height="667"/></clipPath></defs><g id="a" class="a"><rect class="i" width="375" height="667"/><g class="b" transform="translate(142 153)"><rect class="e" width="89" height="361"/><rect class="f" x="3" y="3" width="83" height="355"/></g><g transform="translate(1404 94)"><path class="e" d="M -1193.499633789063 116.499885559082 L -1240.5 116.499885559082 L -1240.5 34.00020217895508 L -1240.5 32.50020217895508 L -1242 32.50020217895508 L -1333.499755859375 32.50020217895508 L -1333.499755859375 1.500012874603271 L -1242 1.500012874603271 L -1191.999633789063 1.500012874603271 L -1100.499877929688 1.500012874603271 L -1100.499877929688 32.50020217895508 L -1191.999633789063 32.50020217895508 L -1193.499633789063 32.50020217895508 L -1193.499633789063 34.00020217895508 L -1193.499633789063 116.499885559082 Z"/><path class="g" d="M -1194.999633789063 114.9999160766602 L -1194.999633789063 34.00021743774414 L -1194.999633789063 31.00021743774414 L -1191.999633789063 31.00021743774414 L -1101.999877929688 31.00021743774414 L -1101.999877929688 3.000017166137695 L -1191.999633789063 3.000017166137695 L -1242 3.000017166137695 L -1331.999755859375 3.000017166137695 L -1331.999755859375 31.00021743774414 L -1242 31.00021743774414 L -1239 31.00021743774414 L -1239 34.00021743774414 L -1239 114.9999160766602 L -1194.999633789063 114.9999160766602 M -1191.999633789063 117.9999160766602 L -1242 117.9999160766602 L -1242 34.00021743774414 L -1334.999755859375 34.00021743774414 L -1334.999755859375 1.707560295471922e-05 L -1242 1.707560295471922e-05 L -1191.999633789063 1.707560295471922e-05 L -1098.999877929688 1.707560295471922e-05 L -1098.999877929688 34.00021743774414 L -1191.999633789063 34.00021743774414 L -1191.999633789063 117.9999160766602 Z"/></g><g class="c" transform="translate(162 275)"><rect class="e" width="50" height="387" rx="25"/><rect class="f" x="1.5" y="1.5" width="47" height="384" rx="23.5"/></g><g class="d" transform="translate(59 1084)"><path class="e" d="M 79.99980926513672 -642 L 65.00009918212891 -642 L 65.00009918212891 -657.9999389648438 L 65.00009918212891 -660.9999389648438 L 62.00009918212891 -660.9999389648438 L 53.00009918212891 -660.9999389648438 L 50.00009918212891 -660.9999389648438 L 50.00009918212891 -657.9999389648438 L 50.00009918212891 -652.9998168945313 L 12.00000953674316 -652.9998168945313 L 12.00000953674316 -665.9996948242188 L 50.00009918212891 -665.9996948242188 L 50.00009918212891 -664.000244140625 L 50.00009918212891 -661.000244140625 L 53.00009918212891 -661.000244140625 L 62.00009918212891 -661.000244140625 L 65.00009918212891 -661.000244140625 L 65.00009918212891 -664.000244140625 L 65.00009918212891 -753.9999389648438 L 79.99980926513672 -753.9999389648438 L 79.99980926513672 -642 Z"/><path class="h" d="M 76.99979400634766 -645 L 76.99979400634766 -750.9999389648438 L 68.00010681152344 -750.9999389648438 L 68.00010681152344 -664.000244140625 L 64.99995422363281 -661.0001220703125 L 68.00010681152344 -657.9999389648438 L 68.00010681152344 -645 L 76.99979400634766 -645 M 47.0001106262207 -655.9998168945313 L 47.0001106262207 -657.9999389648438 L 50.00026702880859 -661.0001220703125 L 48.00067138671875 -662.9996948242188 L 15.00000476837158 -662.9996948242188 L 15.00000476837158 -655.9998168945313 L 47.0001106262207 -655.9998168945313 M 82.99979400634766 -639 L 62.0001106262207 -639 L 62.0001106262207 -657.9999389648438 L 53.0001106262207 -657.9999389648438 L 53.0001106262207 -649.9998168945313 L 9.000004768371582 -649.9998168945313 L 9.000004768371582 -668.9996948242188 L 53.0001106262207 -668.9996948242188 L 53.0001106262207 -664.000244140625 L 62.0001106262207 -664.000244140625 L 62.0001106262207 -756.9999389648438 L 82.99979400634766 -756.9999389648438 L 82.99979400634766 -639 Z"/></g><g class="d" transform="translate(308 -423) rotate(180)"><path class="e" d="M 79.99980926513672 -642 L 65.00009918212891 -642 L 65.00009918212891 -657.9999389648438 L 65.00009918212891 -660.9999389648438 L 62.00009918212891 -660.9999389648438 L 53.00009918212891 -660.9999389648438 L 50.00009918212891 -660.9999389648438 L 50.00009918212891 -657.9999389648438 L 50.00009918212891 -652.9998168945313 L 12.00000953674316 -652.9998168945313 L 12.00000953674316 -665.9996948242188 L 50.00009918212891 -665.9996948242188 L 50.00009918212891 -664.000244140625 L 50.00009918212891 -661.000244140625 L 53.00009918212891 -661.000244140625 L 62.00009918212891 -661.000244140625 L 65.00009918212891 -661.000244140625 L 65.00009918212891 -664.000244140625 L 65.00009918212891 -753.9999389648438 L 79.99980926513672 -753.9999389648438 L 79.99980926513672 -642 Z"/><path class="h" d="M 76.99979400634766 -645 L 76.99979400634766 -750.9999389648438 L 68.00010681152344 -750.9999389648438 L 68.00010681152344 -664.000244140625 L 64.99995422363281 -661.0001220703125 L 68.00010681152344 -657.9999389648438 L 68.00010681152344 -645 L 76.99979400634766 -645 M 47.0001106262207 -655.9998168945313 L 47.0001106262207 -657.9999389648438 L 50.00026702880859 -661.0001220703125 L 48.00067138671875 -662.9996948242188 L 15.00000476837158 -662.9996948242188 L 15.00000476837158 -655.9998168945313 L 47.0001106262207 -655.9998168945313 M 82.99979400634766 -639 L 62.0001106262207 -639 L 62.0001106262207 -657.9999389648438 L 53.0001106262207 -657.9999389648438 L 53.0001106262207 -649.9998168945313 L 9.000004768371582 -649.9998168945313 L 9.000004768371582 -668.9996948242188 L 53.0001106262207 -668.9996948242188 L 53.0001106262207 -664.000244140625 L 62.0001106262207 -664.000244140625 L 62.0001106262207 -756.9999389648438 L 82.99979400634766 -756.9999389648438 L 82.99979400634766 -639 Z"/></g></g></svg>