<svg xmlns="http://www.w3.org/2000/svg" xmlns:xlink="http://www.w3.org/1999/xlink" width="375" height="667" viewBox="0 0 375 667">
  <defs>
    <style>
      .cls-1 {
        clip-path: url(#clip-iPhone_6_7_8_10);
      }

      .cls-2, .cls-3, .cls-8 {
        fill: #707070;
      }

      .cls-2 {
        stroke: #000;
        stroke-width: 6px;
      }

      .cls-3 {
        stroke-linejoin: bevel;
      }

      .cls-4 {
        stroke: #707070;
      }

      .cls-5, .cls-7, .cls-8 {
        stroke: none;
      }

      .cls-6 {
        fill: none;
      }

      .cls-9 {
        fill: #e3d0b8;
      }
    </style>
    <clipPath id="clip-iPhone_6_7_8_10">
      <rect width="375" height="667"/>
    </clipPath>
  </defs>
  <g id="iPhone_6_7_8_10" data-name="iPhone 6/7/8 – 10" class="cls-1">
    <rect class="cls-9" width="375" height="667"/>
    <g id="Rectangle_33" data-name="Rectangle 33" class="cls-2" transform="translate(142 153)">
      <rect class="cls-5" width="89" height="361"/>
      <rect class="cls-6" x="3" y="3" width="83" height="355"/>
    </g>
    <g id="Union_5" data-name="Union 5" class="cls-3" transform="translate(314 -312) rotate(180)">
      <path class="cls-5" d="M 79.99980926513672 -642 L 65.00009918212891 -642 L 65.00009918212891 -737.0001220703125 L 65.00009918212891 -740.0001220703125 L 62.00009918212891 -740.0001220703125 L 53.00009918212891 -740.0001220703125 L 50.00009918212891 -740.0001220703125 L 50.00009918212891 -737.0001220703125 L 50.00009918212891 -730.000244140625 L 12.00000953674316 -730.000244140625 L 12.00000953674316 -743.0001220703125 L 50.00009918212891 -743.0001220703125 L 50.00009918212891 -740.0004272460938 L 53.00009918212891 -740.0004272460938 L 62.00009918212891 -740.0004272460938 L 65.00009918212891 -740.0004272460938 L 65.00009918212891 -743.0004272460938 L 65.00009918212891 -753.9999389648438 L 79.99980926513672 -753.9999389648438 L 79.99980926513672 -642 Z"/>
      <path class="cls-7" d="M 76.99979400634766 -645 L 76.99979400634766 -750.9999389648438 L 68.00010681152344 -750.9999389648438 L 68.00010681152344 -743.0004272460938 L 64.99996185302734 -740.000244140625 L 68.00010681152344 -737.0001220703125 L 68.00010681152344 -645 L 76.99979400634766 -645 M 47.0001106262207 -733.000244140625 L 47.0001106262207 -737.0001220703125 L 50.0001106262207 -740.0001220703125 L 15.00000476837158 -740.0001220703125 L 15.00000476837158 -733.000244140625 L 47.0001106262207 -733.000244140625 M 82.99979400634766 -639 L 62.0001106262207 -639 L 62.0001106262207 -737.0001220703125 L 53.0001106262207 -737.0001220703125 L 53.0001106262207 -727.000244140625 L 9.000004768371582 -727.000244140625 L 9.000004768371582 -746.0001220703125 L 53.0001106262207 -746.0001220703125 L 53.0001106262207 -743.0004272460938 L 62.0001106262207 -743.0004272460938 L 62.0001106262207 -756.9999389648438 L 82.99979400634766 -756.9999389648438 L 82.99979400634766 -639 Z"/>
    </g>
    <g id="Union_4" data-name="Union 4" class="cls-3" transform="translate(60 973)">
      <path class="cls-5" d="M 79.99980926513672 -642 L 65.00009918212891 -642 L 65.00009918212891 -737.0001220703125 L 65.00009918212891 -740.0001220703125 L 62.00009918212891 -740.0001220703125 L 53.00009918212891 -740.0001220703125 L 50.00009918212891 -740.0001220703125 L 50.00009918212891 -737.0001220703125 L 50.00009918212891 -730.000244140625 L 12.00000953674316 -730.000244140625 L 12.00000953674316 -743.0001220703125 L 50.00009918212891 -743.0001220703125 L 50.00009918212891 -740.0004272460938 L 53.00009918212891 -740.0004272460938 L 62.00009918212891 -740.0004272460938 L 65.00009918212891 -740.0004272460938 L 65.00009918212891 -743.0004272460938 L 65.00009918212891 -753.9999389648438 L 79.99980926513672 -753.9999389648438 L 79.99980926513672 -642 Z"/>
      <path class="cls-7" d="M 76.99979400634766 -645 L 76.99979400634766 -750.9999389648438 L 68.00010681152344 -750.9999389648438 L 68.00010681152344 -743.0004272460938 L 64.99996185302734 -740.000244140625 L 68.00010681152344 -737.0001220703125 L 68.00010681152344 -645 L 76.99979400634766 -645 M 47.0001106262207 -733.000244140625 L 47.0001106262207 -737.0001220703125 L 50.0001106262207 -740.0001220703125 L 15.00000476837158 -740.0001220703125 L 15.00000476837158 -733.000244140625 L 47.0001106262207 -733.000244140625 M 82.99979400634766 -639 L 62.0001106262207 -639 L 62.0001106262207 -737.0001220703125 L 53.0001106262207 -737.0001220703125 L 53.0001106262207 -727.000244140625 L 9.000004768371582 -727.000244140625 L 9.000004768371582 -746.0001220703125 L 53.0001106262207 -746.0001220703125 L 53.0001106262207 -743.0004272460938 L 62.0001106262207 -743.0004272460938 L 62.0001106262207 -756.9999389648438 L 82.99979400634766 -756.9999389648438 L 82.99979400634766 -639 Z"/>
    </g>
    <g id="Union_9" data-name="Union 9" transform="translate(1404 94)">
      <path class="cls-5" d="M -1192.499633789063 117.4998931884766 L -1241.5 117.4998931884766 L -1241.5 34.00021362304688 L -1241.5 33.50021362304688 L -1242 33.50021362304688 L -1334.499755859375 33.50021362304688 L -1334.499755859375 0.5000092387199402 L -1242 0.5000092387199402 L -1191.999633789063 0.5000092387199402 L -1099.499877929688 0.5000092387199402 L -1099.499877929688 33.50021362304688 L -1191.999633789063 33.50021362304688 L -1192.499633789063 33.50021362304688 L -1192.499633789063 34.00021362304688 L -1192.499633789063 117.4998931884766 Z"/>
      <path class="cls-8" d="M -1192.999633789063 116.9998931884766 L -1192.999633789063 34.00021362304688 L -1192.999633789063 33.00021362304688 L -1191.999633789063 33.00021362304688 L -1099.999877929688 33.00021362304688 L -1099.999877929688 1.000009179115295 L -1191.999633789063 1.000009179115295 L -1242 1.000009179115295 L -1333.999755859375 1.000009179115295 L -1333.999755859375 33.00021362304688 L -1242 33.00021362304688 L -1241 33.00021362304688 L -1241 34.00021362304688 L -1241 116.9998931884766 L -1192.999633789063 116.9998931884766 M -1191.999633789063 117.9998931884766 L -1242 117.9998931884766 L -1242 34.00021362304688 L -1334.999755859375 34.00021362304688 L -1334.999755859375 9.232465345121454e-06 L -1242 9.232465345121454e-06 L -1191.999633789063 9.232465345121454e-06 L -1098.999877929688 9.232465345121454e-06 L -1098.999877929688 34.00021362304688 L -1191.999633789063 34.00021362304688 L -1191.999633789063 117.9998931884766 Z"/>
    </g>
    <g id="Rectangle_37" data-name="Rectangle 37" class="cls-4" transform="translate(162 275)">
      <rect class="cls-5" width="50" height="387" rx="25"/>
      <rect class="cls-6" x="0.5" y="0.5" width="49" height="386" rx="24.5"/>
    </g>
  </g>
</svg>
