<svg xmlns="http://www.w3.org/2000/svg" width="88.7" height="70.649" viewBox="0 0 88.7 70.649">
  <g id="Union_1" data-name="Union 1" transform="translate(52.627 -806.925) rotate(-90)" fill="red">
    <path d="M -833.5560302734375 35.57291030883789 C -837.1893310546875 35.57291030883789 -840.6051025390625 34.1578369140625 -843.1741333007813 31.58837890625 L -873.0892333984375 1.67324960231781 C -874.427978515625 0.3347437381744385 -875.4537353515625 -1.229891538619995 -876.1380615234375 -2.977232694625854 C -876.7992553710938 -4.665456295013428 -877.11279296875 -6.444715023040771 -877.0700073242188 -8.265562057495117 L -877.0697631835938 -8.277303695678711 L -877.0700073242188 -8.289044380187988 C -877.11279296875 -10.10989189147949 -876.7992553710938 -11.88913822174072 -876.1380615234375 -13.57736206054688 C -875.4537353515625 -15.32471466064453 -874.427978515625 -16.88935089111328 -873.0892944335938 -18.22780990600586 L -843.1741333007813 -48.14295196533203 C -840.6051025390625 -50.71244430541992 -837.1893310546875 -52.12750244140625 -833.5560913085938 -52.12750244140625 C -829.9227905273438 -52.12750244140625 -826.5067749023438 -50.71243286132813 -823.9373168945313 -48.14295196533203 C -821.3682250976563 -45.57390213012695 -819.953369140625 -42.15816116333008 -819.953369140625 -38.52495193481445 C -819.953369140625 -34.89173889160156 -821.3682250976563 -31.47599792480469 -823.9373168945313 -28.90694999694824 L -830.1115112304688 -22.73295021057129 L -830.965087890625 -21.87939834594727 L -829.7579345703125 -21.87939834594727 L -821.0267944335938 -21.87939834594727 C -817.3934326171875 -21.87939834594727 -813.9776611328125 -20.46456146240234 -811.4086303710938 -17.89552688598633 C -808.8395385742188 -15.3264799118042 -807.4247436523438 -11.91066837310791 -807.4247436523438 -8.277303695678711 C -807.4247436523438 -4.643938541412354 -808.8395385742188 -1.228126883506775 -811.4086303710938 1.340920209884644 C -813.9776611328125 3.909967184066772 -817.3934326171875 5.324802398681641 -821.0267944335938 5.324802398681641 L -829.7579345703125 5.324802398681641 L -830.965087890625 5.324802398681641 L -830.1115112304688 6.178355693817139 L -823.9373168945313 12.35235595703125 C -821.3682250976563 14.92140293121338 -819.953369140625 18.33714294433594 -819.953369140625 21.97035598754883 C -819.953369140625 25.60356712341309 -821.3682250976563 29.01930809020996 -823.9373168945313 31.58835601806641 C -826.5067749023438 34.1578369140625 -829.9227294921875 35.57291030883789 -833.5560302734375 35.57291030883789 Z" stroke="none"/>
    <path d="M -833.5560302734375 35.07290267944336 C -830.0562744140625 35.07290267944336 -826.765869140625 33.7098388671875 -824.2908325195313 31.23479080200195 C -821.8162231445313 28.76019096374512 -820.453369140625 25.47001457214355 -820.453369140625 21.97035217285156 C -820.453369140625 18.47068977355957 -821.8162231445313 15.18051528930664 -824.2908325195313 12.7059154510498 L -830.4650268554688 6.531915187835693 L -832.1721801757813 4.824802398681641 L -829.7579345703125 4.824802398681641 L -821.0267944335938 4.824802398681641 C -817.5269775390625 4.824802398681641 -814.2367553710938 3.461977481842041 -811.7621459960938 0.9873775839805603 C -809.2875366210938 -1.487234950065613 -807.9247436523438 -4.777484893798828 -807.9247436523438 -8.277297019958496 C -807.9247436523438 -11.77711009979248 -809.2875366210938 -15.06735992431641 -811.7621459960938 -17.54197311401367 C -814.2367553710938 -20.01657295227051 -817.5269775390625 -21.37939834594727 -821.0267944335938 -21.37939834594727 L -829.7579345703125 -21.37939834594727 L -832.1721801757813 -21.37939834594727 L -830.4650268554688 -23.08650970458984 L -824.2908325195313 -29.2605094909668 C -821.8162231445313 -31.73510932922363 -820.453369140625 -35.02528381347656 -820.453369140625 -38.52494812011719 C -820.453369140625 -42.02460861206055 -821.8162231445313 -45.31478500366211 -824.2908325195313 -47.78938674926758 C -826.765869140625 -50.26443481445313 -830.0563354492188 -51.62749862670898 -833.5560913085938 -51.62749862670898 C -837.0557861328125 -51.62749862670898 -840.345947265625 -50.26444625854492 -842.8206176757813 -47.78938674926758 L -872.7357788085938 -17.87422180175781 C -874.025390625 -16.58481025695801 -875.0134887695313 -15.07778453826904 -875.6724853515625 -13.39503479003906 C -876.309326171875 -11.7689094543457 -876.611328125 -10.05494785308838 -876.5701293945313 -8.300772666931152 L -876.569580078125 -8.277297019958496 L -876.5701293945313 -8.253822326660156 C -876.611328125 -6.499647617340088 -876.309326171875 -4.785685062408447 -875.6724853515625 -3.159559965133667 C -875.0134887695313 -1.476809978485107 -874.025390625 0.03021507523953915 -872.7357177734375 1.319690108299255 L -842.820556640625 31.2348518371582 C -840.345947265625 33.70985412597656 -837.0557250976563 35.07290267944336 -833.5560302734375 35.07290267944336 M -833.5560302734375 36.07290267944336 C -837.1651611328125 36.07290267944336 -840.774169921875 34.69590377807617 -843.5277099609375 31.94190216064453 L -873.4428100585938 2.026802539825439 C -876.2815551757813 -0.8114474415779114 -877.6572265625 -4.558109760284424 -877.5698852539063 -8.277297019958496 C -877.6572265625 -11.99648475646973 -876.2815551757813 -15.74314785003662 -873.4428100585938 -18.58139801025391 L -843.5277099609375 -48.49649810791016 C -840.774169921875 -51.25049591064453 -837.1651611328125 -52.62749862670898 -833.5560913085938 -52.62749862670898 C -829.9469604492188 -52.62749862670898 -826.3377685546875 -51.25049591064453 -823.583740234375 -48.49649810791016 C -818.0765991210938 -42.98939895629883 -818.0765991210938 -34.06049728393555 -823.583740234375 -28.55339813232422 L -829.7579345703125 -22.37939834594727 L -821.0267944335938 -22.37939834594727 C -813.2382202148438 -22.37939834594727 -806.9247436523438 -16.06589698791504 -806.9247436523438 -8.277297019958496 C -806.9247436523438 -0.4886974096298218 -813.2382202148438 5.824802398681641 -821.0267944335938 5.824802398681641 L -829.7579345703125 5.824802398681641 L -823.583740234375 11.99880218505859 C -818.0765991210938 17.50590324401855 -818.0765991210938 26.4348030090332 -823.583740234375 31.94190216064453 C -826.3377075195313 34.69590377807617 -829.9469604492188 36.07290267944336 -833.5560302734375 36.07290267944336 Z" stroke="none" fill="#707070"/>
  </g>
</svg>
