<svg xmlns="http://www.w3.org/2000/svg" width="206" height="366.001" viewBox="0 0 206 366.001">
  <g id="Groupe_18" data-name="Groupe 18" transform="translate(-85 -244)">
    <g id="Exclusion_1" data-name="Exclusion 1" transform="translate(1865 1001)" fill="#707070">
      <path d="M -1574.500122070313 -391.6176147460938 L -1779.500244140625 -435.4041137695313 L -1779.500244140625 -711.5973510742188 L -1574.500122070313 -756.3788452148438 L -1574.500122070313 -711.9999389648438 L -1573.500122070313 -711.9989624023438 L -1574.500122070313 -711.9998779296875 L -1574.500122070313 -434.9997253417969 L -1574.500122070313 -391.6176147460938 Z" stroke="none"/>
      <path d="M -1575.000122070313 -392.2357177734375 L -1575.000122070313 -434.9997253417969 L -1575.000122070313 -711.9998779296875 L -1573.000122070313 -711.9989624023438 L -1575.000122070313 -711.9999389648438 L -1575.000122070313 -755.7578735351563 L -1779.000244140625 -711.1947631835938 L -1779.000244140625 -435.8086242675781 L -1575.000122070313 -392.2357177734375 M -1574.000122070313 -390.9984130859375 L -1574.000122070313 -390.9995422363281 L -1780.000244140625 -434.9996337890625 L -1780.000244140625 -711.9999389648438 L -1574.000122070313 -756.9998779296875 L -1574.000122070313 -711.9999389648438 L -1574.000122070313 -711.9989624023438 L -1574.000122070313 -711.9998779296875 L -1574.000122070313 -434.9997253417969 L -1574.000122070313 -390.9996337890625 L -1574.000122070313 -390.9984130859375 Z" stroke="none" fill="#707070"/>
    </g>
    <g id="Ellipse_1" data-name="Ellipse 1" transform="translate(174 524)" fill="#fff">
      <path d="M 14 51.5 C 12.22474002838135 51.5 10.49520015716553 50.8484992980957 8.859430313110352 49.56359100341797 C 7.246699810028076 48.29679107666016 5.793690204620361 46.47462844848633 4.540740013122559 44.14773178100586 C 1.935029983520508 39.30855178833008 0.5 32.86355972290039 0.5 26 C 0.5 19.13644027709961 1.935029983520508 12.69145011901855 4.540740013122559 7.852270126342773 C 5.793690204620361 5.525370121002197 7.246699810028076 3.703210115432739 8.859430313110352 2.436409950256348 C 10.49520015716553 1.15149998664856 12.22474002838135 0.5 14 0.5 C 15.77525997161865 0.5 17.50480079650879 1.15149998664856 19.14056968688965 2.436409950256348 C 20.75329971313477 3.703210115432739 22.2063102722168 5.525370121002197 23.45926094055176 7.852270126342773 C 26.06497001647949 12.69145011901855 27.5 19.13644027709961 27.5 26 C 27.5 32.86355972290039 26.06497001647949 39.30855178833008 23.45926094055176 44.14773178100586 C 22.2063102722168 46.47462844848633 20.75329971313477 48.29679107666016 19.14056968688965 49.56359100341797 C 17.50480079650879 50.8484992980957 15.77525997161865 51.5 14 51.5 Z" stroke="none"/>
      <path d="M 14 1 C 12.3394603729248 1 10.71384048461914 1.615570068359375 9.168289184570313 2.829608917236328 C 7.609949111938477 4.053691864013672 6.201129913330078 5.823310852050781 4.98097038269043 8.089321136474609 C 3.737970352172852 10.39775848388672 2.760330200195313 13.09350967407227 2.075220108032227 16.10168838500977 C 1.361759185791016 19.23435974121094 1 22.56463050842285 1 26 C 1 29.43536949157715 1.361759185791016 32.76564025878906 2.075220108032227 35.89830780029297 C 2.760330200195313 38.90649032592773 3.737970352172852 41.60224151611328 4.98097038269043 43.91067886352539 C 6.201129913330078 46.17668914794922 7.609949111938477 47.94631195068359 9.168289184570313 49.17039108276367 C 10.71384048461914 50.38442993164063 12.3394603729248 51 14 51 C 15.6605396270752 51 17.28615951538086 50.38442993164063 18.83171081542969 49.17039108276367 C 20.39004898071289 47.94631195068359 21.79886054992676 46.17668914794922 23.01902008056641 43.91067886352539 C 24.26202964782715 41.60224151611328 25.23966026306152 38.90649032592773 25.92477989196777 35.89830780029297 C 26.63824081420898 32.76564025878906 27 29.43536949157715 27 26 C 27 22.56463050842285 26.63824081420898 19.23435974121094 25.92477989196777 16.10168838500977 C 25.23966026306152 13.09350967407227 24.26202964782715 10.39775848388672 23.01902008056641 8.089321136474609 C 21.79886054992676 5.823310852050781 20.39004898071289 4.053691864013672 18.83171081542969 2.829608917236328 C 17.28615951538086 1.615570068359375 15.6605396270752 1 14 1 M 14 0 C 21.73197937011719 0 28 11.64059829711914 28 26 C 28 40.35939788818359 21.73197937011719 52 14 52 C 6.268009185791016 52 0 40.35939788818359 0 26 C 0 11.64059829711914 6.268009185791016 0 14 0 Z" stroke="none" fill="#707070"/>
    </g>
    <g id="Exclusion_2" data-name="Exclusion 2" transform="translate(111 267)" fill="#fff">
      <path d="M 152.4999847412109 253.3844299316406 L 0.5000152587890625 221.5940704345703 L 0.5000152587890625 32.40664291381836 L 152.5000152587891 0.6153894662857056 L 152.4999847412109 31.9994010925293 L 152.4999847412109 222.0003051757813 L 152.4999847412109 253.3844299316406 Z" stroke="none"/>
      <path d="M 151.9999847412109 252.7690277099609 L 151.9999847412109 222.0003051757813 L 151.9999847412109 31.9994010925293 L 152.0000152587891 1.230807900428772 L 1.000015258789063 32.81290054321289 L 1.000015258789063 221.1877899169922 L 151.9999847412109 252.7690277099609 M 152.9999847412109 253.9998016357422 L 152.9993438720703 253.9996643066406 L 1.52587890625e-05 222.0003051757813 L 1.52587890625e-05 32.00040054321289 L 153.0000152587891 8.178710686479462e-07 L 152.9999847412109 31.9994010925293 L 152.9999847412109 32.00040054321289 L 153.0000152587891 32.00040054321289 L 152.9999847412109 32.00040054321289 L 153.0000152587891 32.00040054321289 L 152.9999847412109 32.00040054321289 L 153.0000152587891 32.00040054321289 L 152.9999847412109 222.0003051757813 L 152.9999847412109 253.9985961914063 L 152.9999847412109 253.9998016357422 Z" stroke="none" fill="#707070"/>
    </g>
  </g>
</svg>
