<svg xmlns="http://www.w3.org/2000/svg" width="207" height="366.002" viewBox="0 0 207 366.002">
  <g id="slide2" transform="translate(-2603 564)">
    <g id="Exclusion_1" data-name="Exclusion 1" transform="translate(2603 -564)">
      <path id="Tracé_96" data-name="Tracé 96" d="M-1778.5-391.618l205-43.786V-711.6l-205-44.782V-712h0v320.382Z" transform="translate(1780 757)" fill="#707070"/>
      <path id="Tracé_97" data-name="Tracé 97" d="M-1778-392.236V-712h0v-43.758l204,44.563v275.386l-204,43.573m-1,1.238v0l206-44V-712l-206-45v45h0v321Z" transform="translate(1780 757)" fill="#707070"/>
    </g>
    <g id="Ellipse_1" data-name="Ellipse 1" transform="translate(2693 -284)">
      <path id="Tracé_98" data-name="Tracé 98" d="M14,51.5a8.256,8.256,0,0,0,5.141-1.936,17.08,17.08,0,0,0,4.319-5.416C26.065,39.309,27.5,32.864,27.5,26S26.065,12.691,23.459,7.852a17.08,17.08,0,0,0-4.319-5.416A8.256,8.256,0,0,0,14,.5,8.256,8.256,0,0,0,8.859,2.436,17.081,17.081,0,0,0,4.541,7.852C1.935,12.691.5,19.136.5,26S1.935,39.309,4.541,44.148a17.082,17.082,0,0,0,4.319,5.416A8.257,8.257,0,0,0,14,51.5Z" fill="#fff"/>
      <path id="Tracé_99" data-name="Tracé 99" d="M14,1a7.77,7.77,0,0,1,4.832,1.83,16.59,16.59,0,0,1,4.187,5.26A31.824,31.824,0,0,1,25.925,16.1,44.662,44.662,0,0,1,27,26a44.662,44.662,0,0,1-1.075,9.9,31.824,31.824,0,0,1-2.906,8.012,16.59,16.59,0,0,1-4.187,5.26A7.771,7.771,0,0,1,14,51a7.771,7.771,0,0,1-4.832-1.83,16.59,16.59,0,0,1-4.187-5.26A31.824,31.824,0,0,1,2.075,35.9,44.665,44.665,0,0,1,1,26a44.665,44.665,0,0,1,1.075-9.9A31.824,31.824,0,0,1,4.981,8.089,16.59,16.59,0,0,1,9.168,2.83,7.77,7.77,0,0,1,14,1m0-1C6.268,0,0,11.641,0,26S6.268,52,14,52,28,40.359,28,26,21.732,0,14,0Z" fill="#707070"/>
    </g>
    <g id="Exclusion_2" data-name="Exclusion 2" transform="translate(2631 -541)">
      <path id="Tracé_100" data-name="Tracé 100" d="M.5,253.384l152-31.79V32.407L.5.615V253.384Z" transform="translate(0 0)" fill="#fff"/>
      <path id="Tracé_101" data-name="Tracé 101" d="M1,252.769V1.231L152,32.813V221.188L1,252.769M0,254H0l153-32V32L0,0V32H0V254Z" transform="translate(0 0)" fill="#707070"/>
    </g>
  </g>
</svg>
